<!--?xml version="1.0" standalone="no"?-->
              <svg id="sw-js-blob-svg" viewBox="0 0 100 100" xmlns="http://www.w3.org/2000/svg" version="1.1">
                    <defs> 
                        <linearGradient id="sw-gradient" x1="0" x2="1" y1="1" y2="0">
                            <stop id="stop1" stop-color="rgba(248, 117, 55, 1)" offset="0%"></stop>
                            <stop id="stop2" stop-color="rgba(251, 168, 31, 1)" offset="100%"></stop>
                        </linearGradient>
                    </defs>
                <path fill="url(#sw-gradient)" d="M17.9,-20.6C24.8,-15.5,33.2,-11.4,36.3,-4.8C39.5,1.9,37.3,11.1,32.4,17.9C27.5,24.6,19.8,28.9,11.5,32.1C3.3,35.3,-5.5,37.3,-13.5,35.2C-21.4,33.1,-28.6,26.9,-33.5,19C-38.4,11.1,-41.2,1.7,-39,-6.2C-36.7,-14,-29.5,-20.3,-22.2,-25.4C-14.9,-30.4,-7.4,-34.2,-1,-33.1C5.5,-31.9,10.9,-25.7,17.9,-20.6Z" width="100%" height="100%" transform="translate(50 50)" stroke-width="0" style="transition: 0.3s;"></path>
              </svg>